<?xml version="1.0" encoding="UTF-8" standalone="no"?>
<svg
   xmlns:dc="http://purl.org/dc/elements/1.1/"
   xmlns:cc="http://creativecommons.org/ns#"
   xmlns:rdf="http://www.w3.org/1999/02/22-rdf-syntax-ns#"
   xmlns:svg="http://www.w3.org/2000/svg"
   xmlns="http://www.w3.org/2000/svg"
   xmlns:sodipodi="http://sodipodi.sourceforge.net/DTD/sodipodi-0.dtd"
   xmlns:inkscape="http://www.inkscape.org/namespaces/inkscape"
   width="16px"
   height="16px"
   viewBox="0 0 16 16"
   version="1.1"
   id="svg2"
   inkscape:version="0.91 r13725"
   sodipodi:docname="alert.svg">
  <metadata
     id="metadata15">
    <rdf:RDF>
      <cc:Work
         rdf:about="">
        <dc:format>image/svg+xml</dc:format>
        <dc:type
           rdf:resource="http://purl.org/dc/dcmitype/StillImage" />
      </cc:Work>
    </rdf:RDF>
  </metadata>
  <sodipodi:namedview
     pagecolor="#ffffff"
     bordercolor="#666666"
     borderopacity="1"
     objecttolerance="10"
     gridtolerance="10"
     guidetolerance="10"
     inkscape:pageopacity="0"
     inkscape:pageshadow="2"
     inkscape:window-width="640"
     inkscape:window-height="480"
     id="namedview13"
     showgrid="false"
     inkscape:zoom="14.75"
     inkscape:cx="8"
     inkscape:cy="8"
     inkscape:window-x="711"
     inkscape:window-y="374"
     inkscape:window-maximized="0"
     inkscape:current-layer="svg2" />
  <!-- Generator: Sketch 40.3 (33839) - http://www.bohemiancoding.com/sketch -->
  <title
     id="title4">alert</title>
  <desc
     id="desc6">Created with Sketch.</desc>
  <defs
     id="defs8" />
  <g
     id="Octicons"
     stroke="none"
     stroke-width="1"
     fill="none"
     fill-rule="evenodd"
     style="fill:#aa0000">
    <g
       id="alert"
       fill="#000000"
       style="fill:#aa0000">
      <path
         d="M8.865,1.51999998 C8.685,1.20999998 8.355,1.01999998 7.995,1.01999998 C7.635,1.01999998 7.305,1.20999998 7.125,1.51999998 L0.275000001,13.5 C0.0950000006,13.81 0.0950000006,14.19 0.275000001,14.5 C0.465000001,14.81 0.795000001,15 1.145,15 L14.845,15 C15.205,15 15.535,14.81 15.705,14.5 C15.875,14.19 15.885,13.81 15.715,13.5 L8.865,1.51999998 Z M8.995,13 L6.995,13 L6.995,11 L8.995,11 L8.995,13 L8.995,13 Z M8.995,9.99999998 L6.995,9.99999998 L6.995,5.99999998 L8.995,5.99999998 L8.995,9.99999998 L8.995,9.99999998 Z"
         id="Shape"
         style="fill:#aa0000" />
    </g>
  </g>
</svg>
