<?xml version="1.0" encoding="UTF-8" standalone="no"?>
<svg
   xmlns:dc="http://purl.org/dc/elements/1.1/"
   xmlns:cc="http://creativecommons.org/ns#"
   xmlns:rdf="http://www.w3.org/1999/02/22-rdf-syntax-ns#"
   xmlns:svg="http://www.w3.org/2000/svg"
   xmlns="http://www.w3.org/2000/svg"
   xmlns:sodipodi="http://sodipodi.sourceforge.net/DTD/sodipodi-0.dtd"
   xmlns:inkscape="http://www.inkscape.org/namespaces/inkscape"
   width="12px"
   height="16px"
   viewBox="0 0 12 16"
   version="1.1"
   id="svg2"
   inkscape:version="0.91 r13725"
   sodipodi:docname="emblem-rabbitvcs-locked.svg">
  <metadata
     id="metadata15">
    <rdf:RDF>
      <cc:Work
         rdf:about="">
        <dc:format>image/svg+xml</dc:format>
        <dc:type
           rdf:resource="http://purl.org/dc/dcmitype/StillImage" />
      </cc:Work>
    </rdf:RDF>
  </metadata>
  <sodipodi:namedview
     pagecolor="#ffffff"
     bordercolor="#666666"
     borderopacity="1"
     objecttolerance="10"
     gridtolerance="10"
     guidetolerance="10"
     inkscape:pageopacity="0"
     inkscape:pageshadow="2"
     inkscape:window-width="745"
     inkscape:window-height="480"
     id="namedview13"
     showgrid="false"
     inkscape:zoom="14.75"
     inkscape:cx="6"
     inkscape:cy="8"
     inkscape:window-x="518"
     inkscape:window-y="385"
     inkscape:window-maximized="0"
     inkscape:current-layer="svg2" />
  <!-- Generator: Sketch 40.3 (33839) - http://www.bohemiancoding.com/sketch -->
  <title
     id="title4">lock</title>
  <desc
     id="desc6">Created with Sketch.</desc>
  <defs
     id="defs8" />
  <g
     id="Octicons"
     style="fill:#808080;fill-opacity:1;stroke:none;stroke-opacity:1"
     stroke-width="1"
     stroke="none"
     fill-rule="evenodd"
     fill="none">
    <g
       id="lock"
       style="fill:#808080;fill-opacity:1;stroke:none;stroke-opacity:1"
       fill="#000000">
      <path
         d="M4,13 L3,13 L3,12 L4,12 L4,13 L4,13 Z M12,7 L12,14 C12,14.55 11.55,15 11,15 L1,15 C0.45,15 0,14.55 0,14 L0,7 C0,6.45 0.45,6 1,6 L2,6 L2,4 C2,1.8 3.8,0 6,0 C8.2,0 10,1.8 10,4 L10,6 L11,6 C11.55,6 12,6.45 12,7 L12,7 Z M3.8,6 L8.21,6 L8.21,4 C8.21,2.78 7.23,1.8 6.01,1.8 C4.79,1.8 3.81,2.78 3.81,4 L3.81,6 L3.8,6 Z M11,7 L2,7 L2,14 L11,14 L11,7 L11,7 Z M4,8 L3,8 L3,9 L4,9 L4,8 L4,8 Z M4,10 L3,10 L3,11 L4,11 L4,10 L4,10 Z"
         id="Shape"
         style="fill:#808080;fill-opacity:1;stroke:none;stroke-opacity:1" />
    </g>
  </g>
</svg>
